#!OML:ASF H:\ManfredObstacles\Project 1\Capture day 2\Session 1\male.ASF
:FULLY-SPECIFIED
:DEGREES
258
root 1.946 15.6105 3.07021 -168.892 -0.119269 176.86
lowerback -5.51732 0.323389 -5.7417
upperback 1.11687 0.831971 -0.839437
thorax 4.19059 0.264203 2.42503
lowerneck -37.4316 -0.146286 -0.435194
upperneck 39.7315 -3.46778 2.49571
head 24.1431 -1.50769 0.148341
rclavicle -9.59136e-015 2.44505e-014
rhumerus -43.3885 -28.0349 -65.8372
rradius 23.9048
rwrist 39.1464
rhand -2.13947 -6.9704
rfingers 7.12502
rthumb 23.5396 -35.5499
lclavicle -9.59136e-015 2.44505e-014
lhumerus -42.8713 38.6598 56.9459
lradius 14.4927
lwrist -71.403
lhand -0.388974 6.75446
lfingers 7.12502
lthumb 25.2178 35.1082
rfemur -15.4831 7.7261 20.6121
rtibia 33.0273
rfoot -22.428 -23.8646
rtoes -6.69739
lfemur -19.5662 -7.97833 -24.5821
ltibia 34.5179
lfoot -9.25828 25.1254
ltoes -0.031703
259
root 1.94844 15.6083 3.05745 -168.808 -0.146989 176.842
lowerback -5.48394 0.328291 -5.73045
upperback 1.10439 0.834955 -0.856248
thorax 4.15874 0.267057 2.40107
lowerneck -37.4641 -0.153396 -0.454459
upperneck 39.7561 -3.4811 2.51279
head 24.1793 -1.51314 0.1571
rclavicle 9.56651e-015 -1.31198e-014
rhumerus -42.5936 -27.0759 -67.0118
rradius 24.4505
rwrist 38.2308
rhand -2.20987 -7.04302
rfingers 7.12502
rthumb 23.4721 -35.6312
lclavicle 9.56651e-015 -1.31198e-014
lhumerus -41.1291 36.723 59.5777
lradius 14.9641
lwrist -68.8191
lhand -0.334434 6.79734
lfingers 7.12502
lthumb 25.27 35.1437
rfemur -15.5089 7.77352 20.6024
rtibia 33.0209
rfoot -22.5749 -23.9793
rtoes -6.89722
lfemur -19.6289 -8.0047 -24.5827
ltibia 34.5571
lfoot -9.30709 25.153
ltoes -0.0434216
260
root 1.95087 15.6059 3.04433 -168.709 -0.169849 176.824
lowerback -5.45785 0.337482 -5.71707
upperback 1.08491 0.843762 -0.875402
thorax 4.12329 0.273066 2.37405
lowerneck -37.533 -0.157836 -0.454332
upperneck 39.7854 -3.49468 2.51599
head 24.2316 -1.51606 0.154408
rclavicle 1.52816e-014 -1.37161e-014
rhumerus -41.83 -26.1576 -68.1152
rradius 24.9825
rwrist 37.4145
rhand -2.26794 -7.11318
rfingers 7.12502
rthumb 23.4164 -35.7085
lclavicle 1.52816e-014 -1.37161e-014
lhumerus -39.5757 34.8317 61.9695
lradius 15.4585
lwrist -66.3952
lhand -0.306845 6.82124
lfingers 7.12502
lthumb 25.2964 35.1639
rfemur -15.5477 7.82916 20.59
rtibia 33.0125
rfoot -22.761 -24.1078
rtoes -7.19205
lfemur -19.7102 -8.04364 -24.5806
ltibia 34.6035
lfoot -9.35454 25.1952
ltoes -0.048885
261
root 1.95335 15.6032 3.03081 -168.597 -0.18984 176.801
lowerback -5.44587 0.345389 -5.71243
upperback 1.0688 0.852533 -0.892803
thorax 4.09925 0.278434 2.35391
lowerneck -37.6306 -0.151383 -0.421588
upperneck 39.8031 -3.49009 2.48959
head 24.28 -1.50918 0.135087
rclavicle -4.62174e-015 -9.34288e-015
rhumerus -41.0693 -25.2415 -69.1808
rradius 25.5126
rwrist 36.6425
rhand -2.31649 -7.18092
rfingers 7.12502
rthumb 23.3698 -35.7821
lclavicle -4.62174e-015 -9.34288e-015
lhumerus -38.1652 32.9885 64.1789
lradius 15.9849
lwrist -64.0997
lhand -0.286393 6.84044
lfingers 7.12502
lthumb 25.316 35.1803
rfemur -15.6001 7.90011 20.5693
rtibia 33.0051
rfoot -22.9954 -24.2564
rtoes -7.60819
lfemur -19.808 -8.0951 -24.5817
ltibia 34.6558
lfoot -9.40086 25.2489
ltoes -0.0462166
262
root 1.95573 15.6001 3.01677 -168.475 -0.210278 176.77
lowerback -5.44659 0.352814 -5.71599
upperback 1.05536 0.862175 -0.912111
thorax 4.08505 0.283671 2.33661
lowerneck -37.7068 -0.144049 -0.384688
upperneck 39.8015 -3.48129 2.46249
head 24.3026 -1.49971 0.116388
rclavicle -1.44119e-015 -1.42131e-014
rhumerus -40.3187 -24.3288 -70.2124
rradius 26.0447
rwrist 35.9186
rhand -2.34818 -7.24125
rfingers 7.12502
rthumb 23.3394 -35.8463
lclavicle -1.44119e-015 -1.42131e-014
lhumerus -36.8626 31.1085 66.2729
lradius 16.5595
lwrist -61.8378
lhand -0.26794 6.8687
lfingers 7.12502
lthumb 25.3337 35.2061
rfemur -15.6621 7.98268 20.5372
rtibia 33.001
rfoot -23.2703 -24.4217
rtoes -8.09796
lfemur -19.9169 -8.15861 -24.59
ltibia 34.7135
lfoot -9.44604 25.3124
ltoes -0.0468511
263
root 1.95806 15.5964 3.00217 -168.344 -0.232709 176.733
lowerback -5.45105 0.357979 -5.72464
upperback 1.04072 0.86931 -0.932185
thorax 4.07189 0.287505 2.32119
lowerneck -37.7364 -0.147462 -0.3804
upperneck 39.7945 -3.48523 2.46432
head 24.3068 -1.49776 0.116097
rclavicle 2.43511e-015 -7.25564e-015
rhumerus -39.5811 -23.408 -71.217
rradius 26.5854
rwrist 35.2328
rhand -2.3583 -7.28976
rfingers 7.12502
rthumb 23.3297 -35.8961
lclavicle 2.43511e-015 -7.25564e-015
lhumerus -35.6836 29.2464 68.2192
lradius 17.1706
lwrist -59.6347
lhand -0.277339 6.88852
lfingers 7.12502
lthumb 25.3247 35.2272
rfemur -15.7332 8.07653 20.4985
rtibia 33.003
rfoot -23.5834 -24.599
rtoes -8.63239
lfemur -20.0352 -8.22885 -24.6019
ltibia 34.7759
lfoot -9.4948 25.3798
ltoes -0.0423866
264
root 1.96045 15.5922 2.9871 -168.211 -0.260015 176.692
lowerback -5.45368 0.36191 -5.73955
upperback 1.02512 0.874981 -0.954734
thorax 4.05677 0.29049 2.30654
lowerneck -37.7278 -0.151637 -0.372638
upperneck 39.7552 -3.48221 2.46311
head 24.2668 -1.49254 0.116421
rclavicle -1.2598e-014 1.53064e-014
rhumerus -38.861 -22.485 -72.1966
rradius 27.1298
rwrist 34.5835
rhand -2.34946 -7.3207
rfingers 7.12502
rthumb 23.3382 -35.9259
lclavicle -1.2598e-014 1.53064e-014
lhumerus -34.6124 27.3619 70.0487
lradius 17.835
lwrist -57.4877
lhand -0.284576 6.91784
lfingers 7.12502
lthumb 25.3178 35.2575
rfemur -15.8062 8.1761 20.4561
rtibia 33.0117
rfoot -23.9265 -24.7816
rtoes -9.17563
lfemur -20.1561 -8.30261 -24.6171
ltibia 34.8439
lfoot -9.5505 25.447
ltoes -0.0345689
